<?xml version="1.0" standalone="no"?>
<!DOCTYPE svg PUBLIC "-//W3C//DTD SVG 20010904//EN"
 "http://www.w3.org/TR/2001/REC-SVG-20010904/DTD/svg10.dtd">
<svg version="1.0" xmlns="http://www.w3.org/2000/svg"
 width="96.000000pt" height="96.000000pt" viewBox="0 0 96.000000 96.000000"
 preserveAspectRatio="xMidYMid meet">
<metadata>
Created by potrace 1.14, written by Peter Selinger 2001-2017
</metadata>
<g transform="translate(0.000000,96.000000) scale(0.100000,-0.100000)"
fill="#000000" stroke="none">
<path d="M574 911 c-90 -30 -179 -139 -191 -231 -2 -19 -8 -39 -13 -45 -6 -7
-4 -22 5 -39 8 -16 15 -35 15 -44 0 -22 41 -79 63 -89 16 -7 7 -15 -53 -46
-77 -40 -110 -45 -150 -22 -14 8 -40 14 -59 15 -36 0 -95 -31 -105 -55 -5 -13
3 -14 49 -9 30 4 55 4 55 1 0 -14 -92 -58 -124 -60 -20 -1 -36 -7 -36 -13 0
-12 36 -34 63 -38 33 -5 27 -14 -22 -37 -28 -13 -50 -27 -51 -31 0 -13 65 -19
93 -9 15 6 51 26 80 44 30 20 73 37 101 41 46 7 47 7 36 -14 -6 -11 -15 -18
-20 -15 -5 3 -24 -8 -42 -26 l-33 -31 33 6 c17 3 32 1 32 -4 0 -13 -73 -49
-96 -48 -35 3 -92 -12 -104 -27 -7 -8 -9 -15 -4 -16 148 -9 159 -8 192 11 42
25 64 25 35 1 -27 -23 -29 -38 -5 -44 30 -6 70 20 77 53 7 34 127 158 160 166
11 3 40 1 64 -5 79 -17 163 7 181 53 5 13 25 36 44 51 31 24 75 95 83 135 2 8
4 58 5 110 3 119 -20 178 -94 245 -47 42 -134 81 -161 72 -6 -2 -21 -1 -33 4
-12 4 -40 0 -70 -10z"/>
</g>
</svg>
